<?xml version="1.0" encoding="utf-8"?>
<!-- Generator: Adobe Illustrator 30.2.1, SVG Export Plug-In . SVG Version: 9.03 Build 0)  -->
<svg version="1.1" id="Layer_1" xmlns="http://www.w3.org/2000/svg" xmlns:xlink="http://www.w3.org/1999/xlink" x="0px" y="0px"
	 viewBox="0 0 512 512" style="enable-background:new 0 0 512 512;" xml:space="preserve">
<path style="fill:#FFFFFF;stroke:#FFFFFF;stroke-width:10;stroke-miterlimit:10;" d="M380.605,148.629
	c2.861-0.004,5.721-0.041,8.582-0.079C419.814,148.363,447.389,157.48,471,177c0.749,0.596,1.498,1.191,2.27,1.805
	c5.721,4.717,10.225,10.334,14.73,16.195c0.608,0.781,1.217,1.562,1.844,2.367c17.95,24.233,22.789,52.504,22.674,81.931
	c0.005,2.368,0.013,4.735,0.021,7.103c0.018,6.365,0.011,12.729-0.002,19.094c-0.006,3.982-0.006,7.963-0.002,11.945
	c0.001,0.664,0.001,1.329,0.002,2.013c0.001,1.35,0.003,2.701,0.004,4.051c0.011,12.596-0.002,25.191-0.023,37.786
	c-0.018,10.796-0.015,21.593,0.004,32.389c0.021,12.577,0.03,25.155,0.018,37.732c-0.006,6.644-0.007,13.288,0.006,19.933
	c0.012,6.233,0.004,12.466-0.02,18.7c-0.005,2.287-0.004,4.575,0.005,6.862c0.011,3.119-0.003,6.238-0.023,9.357
	c0.013,1.36,0.013,1.36,0.027,2.747c-0.081,6.544-1.524,9.889-6.133,14.633c-5.432,4.331-9.527,4.511-16.261,4.532
	c-0.906,0.007-1.812,0.013-2.746,0.02c-3.002,0.02-6.004,0.031-9.005,0.041c-1.538,0.006-1.538,0.006-3.108,0.012
	c-5.429,0.021-10.857,0.035-16.286,0.045c-5.603,0.011-11.206,0.045-16.809,0.085c-4.312,0.026-8.623,0.035-12.935,0.038
	c-2.065,0.005-4.13,0.016-6.196,0.035c-2.894,0.024-5.787,0.023-8.681,0.016c-1.274,0.019-1.274,0.019-2.573,0.039
	c-5.752-0.05-9.061-1.217-13.803-4.509c-5.22-5.502-6.298-10.494-6.258-17.91c-0.004-0.791-0.007-1.581-0.011-2.396
	c-0.01-2.647-0.006-5.293-0.002-7.94c-0.004-1.899-0.01-3.798-0.016-5.698c-0.012-4.09-0.017-8.18-0.018-12.271
	c-0.002-6.477-0.02-12.955-0.041-19.432c-0.049-16.096-0.08-32.193-0.101-48.289c-0.017-12.496-0.039-24.993-0.083-37.489
	c-0.022-6.428-0.03-12.856-0.028-19.284c-0.002-4.017-0.016-8.034-0.033-12.051c-0.006-1.85-0.006-3.7-0.001-5.551
	c0.038-15.598-0.384-30.716-11.412-42.905c-10.306-9.9-23.848-13.834-37.899-13.882c-9.522,0.441-17.719,4.318-25.097,10.097
	c-0.887,0.598-1.774,1.196-2.688,1.812c-10.246,9.692-14.794,23.508-15.405,37.26c-0.037,2.074-0.044,4.146-0.039,6.22
	c-0.002,0.783-0.004,1.567-0.006,2.374c-0.006,2.598-0.005,5.195-0.004,7.793c-0.003,1.873-0.007,3.747-0.011,5.62
	c-0.008,4.02-0.013,8.041-0.016,12.061c-0.006,6.358-0.022,12.716-0.041,19.074c-0.006,2.18-0.013,4.36-0.019,6.539
	c-0.003,1.091-0.006,2.182-0.01,3.307c-0.042,14.792-0.075,29.585-0.087,44.377c-0.008,9.993-0.031,19.986-0.069,29.978
	c-0.02,5.284-0.032,10.568-0.027,15.852c0.005,4.965-0.009,9.93-0.037,14.895c-0.007,1.821-0.007,3.643,0,5.464
	c0.009,2.487-0.007,4.973-0.028,7.461c0.013,1.079,0.013,1.079,0.026,2.18c-0.081,5.03-1.375,7.863-4.538,11.732
	c-5.489,5.118-11.091,5.722-18.328,5.631c-1.003,0.007-2.005,0.014-3.038,0.022c-3.295,0.017-6.589-0.002-9.883-0.024
	c-2.301,0.001-4.602,0.003-6.903,0.007c-4.815,0.003-9.629-0.012-14.444-0.039c-6.16-0.034-12.32-0.028-18.48-0.009
	c-4.749,0.011-9.499,0.002-14.248-0.013c-2.271-0.005-4.542-0.005-6.813,0.002c-3.178,0.005-6.355-0.015-9.534-0.042
	c-1.397,0.01-1.397,0.01-2.822,0.02c-5.922-0.086-10.604-1.086-15.506-4.553c-4.167-5.129-5.123-9.042-5.131-15.501
	c-0.004-1.125-0.008-2.251-0.012-3.41c0.001-1.236,0.002-2.473,0.003-3.747c-0.003-1.313-0.006-2.627-0.009-3.98
	c-0.008-3.649-0.01-7.298-0.011-10.946c-0.002-3.934-0.009-7.868-0.016-11.802c-0.014-8.603-0.02-17.207-0.024-25.81
	c-0.003-5.371-0.007-10.742-0.011-16.113c-0.012-14.869-0.023-29.738-0.026-44.607c0-0.952,0-1.903-0.001-2.884
	c0-0.954,0-1.908-0.001-2.891c0-1.933-0.001-3.866-0.001-5.799c0-0.959,0-1.918-0.001-2.906
	c-0.004-15.541-0.021-31.081-0.045-46.622c-0.024-15.953-0.036-31.905-0.037-47.858c-0.001-8.958-0.007-17.916-0.025-26.874
	c-0.015-7.627-0.021-15.254-0.012-22.881c0.004-3.891,0.003-7.783-0.011-11.674c-0.015-4.219-0.007-8.437,0.004-12.656
	c-0.008-1.23-0.016-2.46-0.024-3.727c0.041-7.068,0.302-12.624,5.005-18.238c0.561-0.458,1.121-0.915,1.699-1.387
	c0.83-0.706,0.83-0.706,1.676-1.426c5.352-3.357,10.629-3.555,16.736-3.536c0.856-0.005,1.712-0.01,2.594-0.015
	c2.818-0.014,5.637-0.013,8.455-0.011c1.968-0.004,3.935-0.008,5.903-0.013c4.121-0.007,8.241-0.007,12.362-0.002
	c5.268,0.006,10.535-0.011,15.803-0.034c4.063-0.015,8.126-0.016,12.189-0.012c1.942-0.001,3.883-0.006,5.825-0.016
	c2.721-0.012,5.441-0.006,8.162,0.006c0.794-0.008,1.588-0.015,2.406-0.023c6.081,0.057,11.745,1.088,16.6,5.044
	c0.446,0.57,0.892,1.14,1.352,1.727c0.692,0.847,0.692,0.847,1.398,1.711c2.748,4.289,3.519,8.182,3.852,13.227
	c0.112,1.603,0.112,1.603,0.227,3.238c0.049,0.808,0.098,1.616,0.148,2.449c0.487-0.534,0.975-1.067,1.477-1.617
	C307.94,166.132,328.186,155.845,350,151c0.797-0.184,1.595-0.368,2.417-0.558C361.751,148.579,371.125,148.628,380.605,148.629z
	 M297.25,205.25c-4.881,5.393-9.984,10.544-15.141,15.672c-0.783,0.78-1.565,1.561-2.372,2.365c-1.911,1.906-3.824,3.81-5.738,5.713
	c-0.015-0.993-0.015-0.993-0.031-2.005c-0.108-6.861-0.222-13.723-0.341-20.584c-0.043-2.564-0.085-5.128-0.125-7.691
	c-0.058-3.676-0.121-7.352-0.186-11.028c-0.017-1.154-0.033-2.308-0.051-3.497c-0.03-1.592-0.03-1.592-0.06-3.215
	c-0.023-1.409-0.023-1.409-0.047-2.846c0.076-2.115,0.076-2.115-1.158-3.132c-27.72,0-55.44,0-84,0c0,103.95,0,207.9,0,315
	c30.69,0,61.38,0,93,0c0.037-13.553,0.075-27.106,0.113-41.07c0.03-8.595,0.061-17.19,0.096-25.785
	c0.054-13.637,0.106-27.274,0.137-40.912c0.023-9.933,0.056-19.866,0.102-29.799c0.024-5.255,0.043-10.511,0.049-15.766
	c0.006-4.956,0.026-9.912,0.057-14.868c0.009-1.81,0.013-3.62,0.011-5.43c-0.013-19.581,3.197-36.472,15.435-52.37
	c0.742-1.031,1.485-2.062,2.25-3.125c12.39-12.953,29.476-19.732,47.25-20.25c19.314,0.54,36.423,8.216,49.723,22.195
	c9.504,11.656,12.876,26.652,12.974,41.386c0.009,0.798,0.018,1.596,0.027,2.419c0.029,2.659,0.051,5.318,0.074,7.978
	c0.019,1.912,0.039,3.825,0.06,5.737c0.054,5.181,0.102,10.362,0.149,15.544c0.05,5.419,0.105,10.837,0.16,16.256
	c0.103,10.256,0.201,20.512,0.297,30.769c0.11,11.678,0.225,23.357,0.341,35.035c0.238,24.019,0.469,48.038,0.696,72.057
	c27.39,0,54.78,0,83,0c0.066-29.427,0.122-58.855,0.153-88.282c0.004-3.481,0.008-6.961,0.012-10.442
	c0.001-0.693,0.002-1.386,0.002-2.1c0.013-11.193,0.037-22.386,0.064-33.579c0.028-11.5,0.045-23,0.051-34.501
	c0.004-6.453,0.013-12.906,0.035-19.359c0.02-6.083,0.027-12.166,0.022-18.248c0.001-2.224,0.007-4.448,0.018-6.672
	c0.155-31.337-8.341-58.864-30.795-81.629c-21.039-20.722-47.176-28.564-76.142-28.558c-2.521-0.004-5.041-0.041-7.562-0.079
	C345.777,166.315,319.78,180.137,297.25,205.25z"/>
<path style="fill:#FFFFFF;stroke:#FFFFFF;stroke-width:10;stroke-miterlimit:10;" d="M39.148,156.855
	c1.033-0.005,1.033-0.005,2.087-0.01c2.262-0.009,4.523-0.011,6.785-0.013c1.584-0.003,3.168-0.007,4.752-0.01
	c3.316-0.006,6.632-0.008,9.948-0.007c4.23,0,8.459-0.014,12.689-0.031c3.271-0.011,6.543-0.013,9.814-0.013
	c1.558-0.001,3.117-0.006,4.675-0.013C111.87,156.659,111.87,156.659,121,165c7.111,7.496,7.439,14.742,7.394,24.619
	c0.009,1.909,0.009,1.909,0.018,3.858c0.016,3.522,0.014,7.044,0.009,10.567c-0.003,3.803,0.012,7.606,0.024,11.409
	c0.021,7.447,0.026,14.893,0.024,22.34c-0.001,6.054,0.003,12.109,0.01,18.163c0.002,1.745,0.004,3.49,0.006,5.235
	c0.001,0.868,0.002,1.737,0.003,2.632c0.019,16.422,0.018,32.843,0.011,49.265c-0.006,15.015,0.015,30.029,0.048,45.044
	c0.034,15.425,0.049,30.85,0.044,46.275c-0.002,8.657,0.003,17.313,0.028,25.97c0.021,7.37,0.025,14.741,0.006,22.111
	c-0.009,3.758-0.01,7.516,0.01,11.274c0.022,4.08,0.005,8.159-0.015,12.239c0.013,1.18,0.025,2.36,0.038,3.576
	c-0.092,8.597-1.983,15.434-7.905,21.862c-0.723,0.516-1.446,1.031-2.191,1.562c-0.721,0.536-1.441,1.073-2.184,1.625
	c-5.265,3.043-10.259,3.676-16.245,3.681c-0.765,0.008-1.53,0.017-2.318,0.025c-2.517,0.024-5.033,0.033-7.55,0.039
	c-1.761,0.009-3.522,0.018-5.283,0.027c-3.688,0.016-7.377,0.024-11.065,0.027c-4.705,0.005-9.41,0.043-14.114,0.089
	c-3.638,0.03-7.275,0.037-10.913,0.038c-1.733,0.004-3.467,0.017-5.2,0.038c-10.538,0.117-19.651-0.021-27.815-7.551
	c-7.69-7.86-8.316-16.152-8.262-26.665c-0.005-1.262-0.011-2.523-0.016-3.823c-0.014-3.486-0.01-6.971-0.003-10.457
	c0.005-3.766-0.008-7.531-0.018-11.297c-0.017-7.371-0.018-14.742-0.013-22.113c0.004-5.993,0.003-11.986-0.003-17.978
	c-0.001-1.28-0.001-1.28-0.002-2.587c-0.002-1.734-0.003-3.468-0.005-5.203c-0.014-16.256-0.008-32.512,0.003-48.769
	c0.01-14.863-0.003-29.725-0.027-44.588c-0.024-15.271-0.034-30.543-0.027-45.814c0.003-8.569,0.001-17.139-0.016-25.708
	c-0.015-7.295-0.015-14.591,0.002-21.886c0.009-3.72,0.011-7.439-0.005-11.159c-0.016-4.038-0.002-8.076,0.016-12.114
	c-0.01-1.168-0.019-2.335-0.029-3.539c0.081-8.978,1.671-16.501,7.843-23.279C22.198,157.809,30.095,156.883,39.148,156.855z
	 M28,178c-1.963,3.121-2.252,5.541-2.257,9.195c-0.006,1.057-0.013,2.114-0.02,3.203c0.003,1.16,0.006,2.32,0.009,3.515
	c-0.005,1.233-0.009,2.466-0.014,3.737c-0.01,3.425-0.012,6.849-0.01,10.274c0,3.693-0.011,7.385-0.02,11.078
	c-0.017,7.235-0.022,14.47-0.023,21.705c-0.001,5.879-0.005,11.759-0.011,17.638c-0.018,16.663-0.027,33.326-0.025,49.989
	c0,0.898,0,1.797,0,2.723c0,0.9,0,1.799,0,2.726c0.001,14.585-0.018,29.17-0.047,43.755c-0.029,14.969-0.043,29.939-0.041,44.908
	c0.001,8.407-0.005,16.813-0.026,25.22c-0.018,7.157-0.023,14.313-0.009,21.469c0.007,3.652,0.007,7.304-0.011,10.957
	c-0.019,3.957-0.006,7.913,0.009,11.87c-0.01,1.158-0.021,2.316-0.031,3.508c0.017,6.164,0.017,6.164,2.432,11.721
	c3.677,3.178,6.131,2.95,10.943,2.987c0.704,0.007,1.409,0.013,2.134,0.02c2.335,0.02,4.67,0.031,7.005,0.041
	c0.797,0.004,1.595,0.008,2.416,0.012c4.22,0.021,8.441,0.035,12.661,0.045c4.358,0.011,8.716,0.045,13.074,0.085
	c3.352,0.026,6.703,0.035,10.055,0.038c1.606,0.005,3.213,0.016,4.819,0.035c2.25,0.024,4.499,0.023,6.75,0.016
	c1.92,0.009,1.92,0.009,3.878,0.018c4.257-0.618,5.546-1.198,8.359-4.488c0.775-4.011,0.669-7.997,0.628-12.071
	c0.007-1.25,0.014-2.5,0.021-3.788c0.019-3.472,0.007-6.944-0.011-10.416c-0.013-3.744,0.002-7.487,0.014-11.231
	c0.018-7.335,0.01-14.67-0.008-22.004c-0.014-5.96-0.018-11.92-0.015-17.88c0.001-1.271,0.001-1.271,0.001-2.568
	c0.001-1.722,0.002-3.443,0.003-5.165c0.009-15.232-0.008-30.463-0.038-45.694c-0.029-14.787-0.036-29.574-0.021-44.361
	c0.017-16.094,0.021-32.188,0.003-48.282c-0.002-1.715-0.004-3.431-0.006-5.146c-0.001-1.266-0.001-1.266-0.003-2.558
	c-0.006-5.954-0.002-11.909,0.004-17.863c0.008-7.254,0.001-14.508-0.024-21.763c-0.013-3.703-0.019-7.405-0.007-11.108
	c0.012-4.01-0.007-8.019-0.029-12.029c0.008-1.176,0.016-2.352,0.025-3.564c-0.011-1.071-0.022-2.143-0.033-3.247
	c-0.001-0.926-0.002-1.852-0.004-2.806c-0.656-3.206-2.014-4.402-4.503-6.454c-3.43-1.386-7.049-1.14-10.709-1.161
	c-0.666-0.005-1.331-0.01-2.017-0.015c-2.194-0.015-4.389-0.021-6.583-0.027c-1.529-0.006-3.059-0.012-4.588-0.017
	c-3.204-0.01-6.407-0.016-9.611-0.02c-4.1-0.005-8.2-0.03-12.3-0.058c-3.158-0.019-6.316-0.024-9.474-0.025
	c-1.511-0.003-3.023-0.011-4.534-0.024c-2.116-0.017-4.231-0.015-6.347-0.009c-1.203-0.004-2.405-0.007-3.644-0.011
	C32.636,175.042,30.804,175.796,28,178z"/>
<path style="fill:#FFFFFF;stroke:#FFFFFF;stroke-width:10;stroke-miterlimit:10;" d="M109.129,16.258
	C123.262,27.543,134.792,43.586,137,62c1.429,20.619-2.652,38.761-15.688,55.312c-11.156,12.675-26.811,22.7-43.958,23.868
	C55.681,142.179,38.807,138.434,22,124c-0.593-0.498-1.186-0.995-1.797-1.508C9.233,112.478,0.802,96.387-0.161,81.511
	C-0.514,59.56,2.47,41.597,18,25C42.017,0.747,80.86-4.141,109.129,16.258z M30.035,38.484C19.184,51.897,16.646,65.215,18,82
	c0.608,3.576,1.548,6.685,3,10c0.383,1,0.383,1,0.773,2.02C25.752,103.273,33.716,110.552,42,116
	c1.073,0.722,2.145,1.444,3.25,2.188c10.876,5.815,25.074,6.641,37.031,4.121C95.165,117.984,107.754,108.15,114,96
	c2.506-6.152,4.498-12.349,5-19c0.077-0.955,0.077-0.955,0.156-1.93c0.625-14.219-4.355-26.652-13.406-37.383
	c-8.417-8.896-20.532-15.082-32.844-15.891C55.919,21.563,41.894,25.829,30.035,38.484z"/>
</svg>
