<?xml version="1.0" encoding="UTF-8"?><svg id="a" xmlns="http://www.w3.org/2000/svg" viewBox="0 0 79.68 52.8"><path d="M15.84,22.84H1.47c-.97,0-.97,1.5,0,1.5h14.37c.97,0,.97-1.5,0-1.5h0Z" style="fill:#fff;"/><path d="M39.84,22.84h-14.37c-.97,0-.97,1.5,0,1.5h14.37c.97,0,.97-1.5,0-1.5h0Z" style="fill:#fff;"/><path d="M19.94,28.14c0,6,0,12,0,18,0,.97,1.5.97,1.5,0,0-6,0-12,0-18,0-.97-1.5-.97-1.5,0h0Z" style="fill:#fff;"/><path d="M19.94,1.19c0,6,0,12,0,18,0,.97,1.5.97,1.5,0,0-6,0-12,0-18,0-.97-1.5-.97-1.5,0h0Z" style="fill:#fff;"/><path d="M55.99,4.92c1.93,0,1.93-3,0-3s-1.93,3,0,3h0Z" style="fill:#fff;"/><path d="M45.21,51.64c1.93,0,1.93-3,0-3s-1.93,3,0,3h0Z" style="fill:#fff;"/><path d="M74.82,34.58c3.86,0,3.87-6,0-6s-3.87,6,0,6h0Z" style="fill:#fff;"/></svg>